<svg width="532" height="200" viewBox="0 0 532 200" fill="none" xmlns="http://www.w3.org/2000/svg">
<path d="M0.193579 131.674L0 77.902L10.2778 77.3327L42.0941 114.294L37.1086 114.57L36.9693 75.8541L49.2412 75.1742L49.4348 128.946L39.2337 129.511L7.34068 92.5545L12.3262 92.2783L12.4655 130.994L0.193579 131.674Z" fill="black"/>
<path d="M73.4503 95.4998L99.2981 94.0679L99.3329 103.747L73.4851 105.179L73.4503 95.4998ZM74.4503 117.572L103.673 115.953L103.709 125.939L62.1376 128.242L61.944 74.4705L102.518 72.2229L102.554 82.2091L74.3286 83.7727L74.4503 117.572Z" fill="black"/>
<path d="M125.732 124.719L107.974 71.9206L120.86 71.2068L136.294 117.988L129.852 118.345L145.634 69.8344L157.139 69.1971L172.65 115.974L166.437 116.318L181.913 67.8247L193.801 67.1661L176.43 121.911L163.085 122.65L149.358 81.6139L152.887 81.4184L139.078 123.98L125.732 124.719Z" fill="black"/>
<path d="M218.575 120.498C214.28 120.736 210.162 120.401 206.221 119.492C202.279 118.532 199.103 117.197 196.694 115.487L200.878 105.882C203.185 107.393 205.9 108.6 209.023 109.502C212.197 110.351 215.395 110.686 218.616 110.508C221.071 110.372 223.038 110.032 224.52 109.489C226.052 108.892 227.174 108.138 227.887 107.228C228.6 106.318 228.954 105.299 228.95 104.173C228.945 102.739 228.378 101.643 227.25 100.886C226.122 100.078 224.637 99.4689 222.794 99.0588C220.951 98.5974 218.904 98.1986 216.653 97.8624C214.452 97.472 212.226 96.9807 209.973 96.3884C207.772 95.7932 205.749 94.9833 203.904 93.9587C202.059 92.934 200.545 91.5324 199.363 89.754C198.231 87.9727 197.66 85.6481 197.65 82.7803C197.639 79.7076 198.447 76.8713 200.074 74.2713C201.752 71.6173 204.25 69.4556 207.569 67.7864C210.938 66.0631 215.154 65.0613 220.216 64.7808C223.591 64.5939 226.916 64.8194 230.191 65.4575C233.467 66.0444 236.36 67.0622 238.871 68.511L235.07 78.1719C232.559 76.8768 230.05 75.9657 227.542 75.4388C225.034 74.8606 222.578 74.6381 220.175 74.7713C217.772 74.9044 215.804 75.2951 214.272 75.9434C212.74 76.5917 211.644 77.3952 210.982 78.3538C210.321 79.2612 209.992 80.3038 209.996 81.4817C210.001 82.8644 210.568 83.9599 211.696 84.7682C212.824 85.5252 214.309 86.1088 216.152 86.519C217.994 86.9291 220.016 87.3293 222.216 87.7196C224.468 88.1071 226.695 88.5728 228.896 89.1168C231.148 89.6579 233.196 90.4408 235.041 91.4654C236.886 92.4901 238.374 93.8931 239.506 95.6744C240.689 97.4528 241.285 99.7504 241.295 102.567C241.306 105.588 240.472 108.401 238.794 111.003C237.116 113.606 234.592 115.769 231.223 117.493C227.904 119.213 223.689 120.215 218.575 120.498Z" fill="black"/>
<path d="M265.457 10.6222L265.558 38.6109L269.852 38.3731L269.751 10.3844L265.457 10.6222Z" fill="white"/>
<path d="M265.455 5.10001C266.064 5.63736 266.787 5.88286 267.624 5.8365C268.461 5.79014 269.175 5.46502 269.768 4.86115C270.372 4.2566 270.673 3.55345 270.67 2.75169C270.667 1.94993 270.361 1.28037 269.753 0.743015C269.156 0.204988 268.44 -0.0408443 267.603 0.00551696C266.766 0.0518782 266.045 0.377331 265.441 0.981876C264.848 1.58575 264.554 2.28857 264.556 3.09033C264.559 3.89209 264.859 4.56198 265.455 5.10001Z" fill="white"/>
<path d="M258.998 10.98L259.011 14.6244L253.043 14.955L253.102 31.2817C253.107 32.4965 253.286 33.3978 253.64 33.9858C254.006 34.5608 254.468 34.9362 255.027 35.1118C255.598 35.2746 256.198 35.3385 256.829 35.3036C257.302 35.2774 257.69 35.2316 257.993 35.1662L258.721 34.9801L259.608 38.7947C259.317 38.9202 258.911 39.052 258.39 39.1903C257.869 39.3406 257.208 39.438 256.407 39.4823C255.194 39.5495 254.005 39.3542 252.838 38.8963C251.684 38.4378 250.723 37.6952 249.955 36.6685C249.199 35.6412 248.818 34.3136 248.812 32.6858L248.75 15.1928L244.528 15.4266L244.515 11.7823L248.736 11.5484L248.712 4.84281L253.006 4.60496L253.03 11.3106L258.998 10.98Z" fill="white"/>
<path d="M180.64 43.3148L180.505 5.99656L176.211 6.23441L176.346 43.5527L180.64 43.3148Z" fill="white"/>
<path d="M168.347 6.67005L168.481 43.9883L164.187 44.2262L164.053 6.90791L168.347 6.67005Z" fill="white"/>
<path fill-rule="evenodd" clip-rule="evenodd" d="M138.324 44.4377C140.233 45.5349 142.448 46.0136 144.971 45.8738C147.494 45.7341 149.7 45.0105 151.588 43.703C153.488 42.3949 154.962 40.6304 156.009 38.4097C157.069 36.1882 157.593 33.6319 157.583 30.7407C157.572 27.8252 157.03 25.3098 155.954 23.1944C154.891 21.0784 153.405 19.4718 151.497 18.3747C149.6 17.2769 147.39 16.7978 144.867 16.9376C142.344 17.0773 140.133 17.8013 138.233 19.1094C136.345 20.4169 134.871 22.1874 133.812 24.421C132.764 26.6539 132.246 29.2281 132.256 32.1436C132.267 35.0348 132.803 37.5324 133.866 39.6362C134.942 41.7394 136.427 43.3399 138.324 44.4377ZM149.683 40.2728C148.449 41.3253 146.874 41.9047 144.958 42.0108C143.041 42.117 141.462 41.7123 140.222 40.7969C138.981 39.8814 138.06 38.6384 137.46 37.0678C136.86 35.4972 136.557 33.7765 136.55 31.9058C136.543 30.035 136.834 28.2753 137.423 26.6267C138.011 24.9781 138.922 23.6215 140.156 22.5568C141.39 21.4922 142.965 20.9068 144.881 20.8006C146.798 20.6945 148.376 21.1052 149.617 22.0328C150.858 22.9604 151.778 24.2155 152.379 25.7983C152.979 27.381 153.282 29.1078 153.289 30.9785C153.296 32.8493 153.005 34.6029 152.416 36.2394C151.828 37.8758 150.916 39.2203 149.683 40.2728Z" fill="white"/>
<path d="M109.576 45.9755C111.473 47.1098 113.732 47.6043 116.352 47.4592C118.414 47.345 120.22 46.8622 121.769 46.0109C123.331 45.1467 124.583 44.0325 125.524 42.6681C126.478 41.2909 127.073 39.7695 127.31 38.104L123.016 38.3418C122.752 39.377 122.307 40.2765 121.679 41.0404C121.051 41.8042 120.282 42.4056 119.374 42.8448C118.466 43.2839 117.454 43.5344 116.338 43.5962C114.639 43.6902 113.158 43.3288 111.893 42.5119C110.641 41.6943 109.666 40.5029 108.969 38.9377C108.284 37.3718 107.937 35.5077 107.93 33.3453C107.922 31.2316 108.261 29.3721 108.947 27.7667C109.645 26.1485 110.617 24.8735 111.863 23.9418C113.121 22.9973 114.587 22.4787 116.261 22.386C118.153 22.2811 119.659 22.6959 120.779 23.6302C121.91 24.5517 122.642 25.6411 122.974 26.8985L127.268 26.6607C127.019 24.9248 126.389 23.4288 125.378 22.1726C124.366 20.9164 123.071 19.9675 121.491 19.326C119.912 18.6845 118.14 18.4181 116.175 18.527C113.652 18.6667 111.446 19.4086 109.558 20.7525C107.683 22.0835 106.221 23.8716 105.174 26.1167C104.139 28.3489 103.626 30.8864 103.636 33.729C103.646 36.523 104.165 38.979 105.191 41.097C106.218 43.2151 107.68 44.8412 109.576 45.9755Z" fill="white"/>
<path fill-rule="evenodd" clip-rule="evenodd" d="M200.224 42.8132C197.531 42.9624 195.206 42.4958 193.249 41.4135C191.304 40.3184 189.8 38.7249 188.737 36.6332C187.686 34.5287 187.155 32.043 187.145 29.1761C187.134 26.3092 187.647 23.7535 188.682 21.5091C189.729 19.2519 191.191 17.4577 193.067 16.1267C194.954 14.7828 197.16 14.0409 199.683 13.9012C201.138 13.8206 202.577 13.9839 203.997 14.3912C205.418 14.7985 206.713 15.5165 207.881 16.5454C209.05 17.562 209.983 18.9441 210.681 20.6915C211.378 22.4389 211.732 24.6186 211.741 27.2304L211.748 29.0525L191.452 30.1768C191.521 32.0355 191.887 33.6129 192.552 34.9092C193.297 36.3259 194.326 37.3807 195.639 38.0734C196.951 38.754 198.475 39.0463 200.21 38.9502C201.338 38.8877 202.356 38.6734 203.265 38.3071C204.185 37.9281 204.978 37.3981 205.643 36.7174C206.308 36.0244 206.82 35.182 207.181 34.19L211.333 35.1264C210.902 36.5597 210.172 37.8394 209.145 38.9656C208.118 40.0796 206.847 40.9762 205.333 41.6554C203.819 42.3225 202.116 42.7084 200.224 42.8132ZM192.417 22.7238C191.849 23.911 191.527 25.1561 191.45 26.4589L207.368 25.5772C207.362 23.9979 207.042 22.6063 206.407 21.4021C205.784 20.1973 204.895 19.2684 203.74 18.6155C202.597 17.962 201.249 17.6782 199.697 17.7642C197.986 17.8589 196.508 18.3661 195.262 19.2857C194.028 20.1924 193.079 21.3384 192.417 22.7238Z" fill="white"/>
<path d="M222.905 39.6978C224.802 40.8321 227.06 41.3267 229.68 41.1815C231.742 41.0673 233.548 40.5845 235.098 39.7332C236.66 38.8691 237.912 37.7548 238.853 36.3904C239.807 35.0132 240.402 33.4919 240.638 31.8263L236.345 32.0642C236.081 33.0994 235.636 33.9989 235.008 34.7627C234.379 35.5265 233.611 36.128 232.703 36.5671C231.795 37.0062 230.782 37.2567 229.667 37.3185C227.968 37.4126 226.487 37.0511 225.222 36.2342C223.97 35.4166 222.995 34.2252 222.298 32.66C221.613 31.0941 221.266 29.23 221.258 27.0677C221.251 24.954 221.59 23.0944 222.276 21.489C222.974 19.8708 223.946 18.5959 225.192 17.6642C226.45 16.7196 227.916 16.201 229.59 16.1083C231.482 16.0035 232.988 16.4182 234.108 17.3525C235.239 18.274 235.971 19.3635 236.303 20.6209L240.597 20.383C240.348 18.6472 239.718 17.1511 238.707 15.8949C237.695 14.6387 236.4 13.6898 234.82 13.0483C233.241 12.4068 231.468 12.1405 229.503 12.2493C226.981 12.3891 224.775 13.1309 222.887 14.4748C221.012 15.8059 219.55 17.594 218.503 19.839C217.467 22.0713 216.955 24.6087 216.965 27.4513C216.975 30.2453 217.494 32.7013 218.52 34.8194C219.547 36.9374 221.009 38.5636 222.905 39.6978Z" fill="white"/>
<path d="M300.468 8.68287L290.234 37.244L285.867 37.4859L275.432 10.0697L280.09 9.81166L287.885 31.6878L288.176 31.6717L295.81 8.94088L300.468 8.68287Z" fill="white"/>
<path fill-rule="evenodd" clip-rule="evenodd" d="M309.98 34.9474C311.937 36.0297 314.262 36.4963 316.955 36.3471C318.847 36.2423 320.55 35.8563 322.064 35.1893C323.578 34.51 324.849 33.6134 325.876 32.4994C326.903 31.3733 327.633 30.0936 328.064 28.6602L323.912 27.7238C323.552 28.7158 323.039 29.5583 322.374 30.2512C321.709 30.932 320.917 31.4619 319.996 31.841C319.087 32.2072 318.069 32.4216 316.941 32.4841C315.206 32.5802 313.683 32.2879 312.37 31.6073C311.057 30.9146 310.028 29.8598 309.283 28.443C308.619 27.1468 308.252 25.5693 308.184 23.7106L328.479 22.5864L328.473 20.7642C328.463 18.1524 328.11 15.9728 327.412 14.2254C326.714 12.4779 325.781 11.0959 324.613 10.0792C323.444 9.05042 322.15 8.33236 320.729 7.92506C319.308 7.51776 317.87 7.35442 316.414 7.43505C313.891 7.5748 311.686 8.31663 309.798 9.66053C307.922 10.9916 306.461 12.7858 305.413 15.043C304.378 17.2874 303.866 19.843 303.876 22.7099C303.886 25.5768 304.417 28.0626 305.468 30.1671C306.531 32.2588 308.035 33.8522 309.98 34.9474ZM308.181 19.9928C308.258 18.6899 308.581 17.4449 309.148 16.2577C309.811 14.8723 310.759 13.7263 311.993 12.8195C313.239 11.9 314.718 11.3928 316.428 11.2981C317.981 11.2121 319.328 11.4959 320.471 12.1494C321.626 12.8023 322.515 13.7312 323.138 14.936C323.773 16.1401 324.094 17.5318 324.099 19.111L308.181 19.9928Z" fill="white"/>
<path d="M306.406 150.164L306.391 146.022L299.609 146.398L299.582 138.778L294.702 139.048L294.73 146.668L289.933 146.934L289.948 151.075L294.745 150.81L294.816 170.688C294.823 172.538 295.256 174.047 296.115 175.214C296.987 176.381 298.08 177.225 299.391 177.746C300.717 178.266 302.068 178.488 303.447 178.412C304.357 178.361 305.107 178.251 305.7 178.08C306.292 177.923 306.753 177.773 307.084 177.63L306.075 173.295L305.249 173.507C304.905 173.581 304.464 173.633 303.926 173.663C303.209 173.703 302.527 173.63 301.878 173.445C301.243 173.245 300.718 172.819 300.302 172.165C299.899 171.497 299.696 170.473 299.691 169.093L299.624 150.539L306.406 150.164Z" fill="white"/>
<path d="M212.353 151.232L217.232 150.961L217.355 185.086C217.362 187.046 217.031 188.763 216.361 190.236C215.704 191.708 214.702 192.875 213.354 193.737C212.02 194.598 210.333 195.085 208.293 195.198L207.3 195.253L207.284 190.697L208.194 190.647C209.682 190.564 210.77 190.062 211.456 189.141C212.142 188.233 212.482 186.971 212.476 185.356L212.353 151.232Z" fill="white"/>
<path d="M214.732 145.798C213.781 145.85 212.96 145.571 212.268 144.961C211.591 144.349 211.25 143.588 211.247 142.677C211.244 141.766 211.579 140.967 212.252 140.281C212.938 139.594 213.757 139.224 214.708 139.172C215.66 139.119 216.474 139.398 217.152 140.01C217.843 140.62 218.191 141.381 218.194 142.292C218.197 143.203 217.855 144.002 217.169 144.689C216.495 145.376 215.683 145.745 214.732 145.798Z" fill="white"/>
<path fill-rule="evenodd" clip-rule="evenodd" d="M183.077 183.277C185.246 184.524 187.764 185.068 190.631 184.909C193.498 184.75 196.005 183.928 198.15 182.442C200.309 180.956 201.984 178.951 203.174 176.427C204.378 173.903 204.974 170.998 204.963 167.712C204.951 164.399 204.334 161.541 203.112 159.137C201.904 156.733 200.215 154.907 198.046 153.66C195.891 152.413 193.38 151.868 190.513 152.027C187.646 152.186 185.133 153.009 182.974 154.495C180.828 155.981 179.154 157.993 177.95 160.531C176.759 163.068 176.17 165.994 176.182 169.307C176.194 172.592 176.804 175.43 178.012 177.821C179.234 180.211 180.922 182.03 183.077 183.277ZM195.985 178.544C194.583 179.741 192.793 180.399 190.616 180.519C188.438 180.64 186.644 180.18 185.234 179.14C183.824 178.1 182.778 176.687 182.096 174.902C181.414 173.118 181.069 171.162 181.062 169.036C181.054 166.911 181.384 164.911 182.053 163.038C182.722 161.164 183.757 159.622 185.159 158.413C186.561 157.203 188.351 156.538 190.529 156.417C192.707 156.296 194.501 156.763 195.911 157.817C197.321 158.871 198.367 160.298 199.049 162.096C199.731 163.895 200.075 165.857 200.083 167.983C200.091 170.109 199.76 172.101 199.091 173.961C198.422 175.821 197.387 177.348 195.985 178.544Z" fill="white"/>
<path d="M157.031 186.108L156.917 154.302L161.631 154.041L161.648 158.845L161.979 158.827C162.552 157.221 163.595 155.886 165.108 154.822C166.62 153.758 168.328 153.173 170.23 153.068C170.588 153.048 171.036 153.03 171.574 153.014C172.112 152.998 172.518 152.996 172.794 153.009L172.812 157.978C172.646 157.946 172.267 157.905 171.674 157.855C171.095 157.79 170.481 157.776 169.833 157.812C168.29 157.897 166.912 158.298 165.702 159.014C164.505 159.716 163.557 160.652 162.858 161.823C162.173 162.979 161.833 164.275 161.838 165.711L161.911 185.837L157.031 186.108Z" fill="white"/>
<path fill-rule="evenodd" clip-rule="evenodd" d="M121.595 200L121.437 156.268L126.151 156.007L126.17 161.059L126.748 161.027C127.105 160.455 127.599 159.723 128.229 158.832C128.874 157.927 129.795 157.103 130.992 156.36C132.202 155.602 133.841 155.166 135.909 155.052C138.583 154.904 140.942 155.443 142.987 156.669C145.032 157.895 146.631 159.705 147.784 162.098C148.936 164.492 149.519 167.36 149.531 170.7C149.543 174.068 148.982 177.02 147.846 179.554C146.711 182.075 145.133 184.068 143.112 185.533C141.09 186.984 138.756 187.783 136.11 187.929C134.07 188.042 132.435 187.795 131.206 187.186C129.977 186.564 129.03 185.836 128.365 185.003C127.7 184.156 127.188 183.453 126.827 182.893L126.414 182.916L126.474 199.73L121.595 200ZM126.291 171.905C126.3 174.307 126.659 176.406 127.369 178.203C128.078 179.986 129.11 181.358 130.465 182.319C131.819 183.266 133.475 183.685 135.432 183.576C137.472 183.463 139.173 182.831 140.533 181.678C141.908 180.511 142.936 178.991 143.619 177.117C144.315 175.228 144.659 173.152 144.651 170.888C144.643 168.651 144.291 166.655 143.596 164.899C142.914 163.128 141.882 161.756 140.5 160.783C139.131 159.796 137.413 159.359 135.346 159.474C133.361 159.584 131.695 160.18 130.348 161.262C129 162.331 127.985 163.782 127.303 165.615C126.62 167.434 126.283 169.53 126.291 171.905Z" fill="white"/>
<path fill-rule="evenodd" clip-rule="evenodd" d="M231.675 180.606C233.899 181.836 236.541 182.366 239.601 182.197C241.752 182.078 243.687 181.639 245.408 180.881C247.128 180.109 248.572 179.09 249.739 177.824C250.907 176.545 251.736 175.09 252.226 173.462L247.507 172.397C247.098 173.525 246.515 174.482 245.76 175.27C245.004 176.043 244.103 176.645 243.057 177.076C242.025 177.492 240.868 177.736 239.586 177.807C237.615 177.916 235.883 177.584 234.391 176.811C232.9 176.023 231.73 174.825 230.884 173.215C230.128 171.742 229.712 169.949 229.634 167.837L252.697 166.559L252.69 164.489C252.679 161.521 252.278 159.044 251.485 157.058C250.692 155.073 249.631 153.502 248.304 152.347C246.976 151.178 245.505 150.362 243.89 149.899C242.275 149.436 240.641 149.25 238.987 149.342C236.12 149.501 233.614 150.344 231.469 151.871C229.337 153.384 227.676 155.422 226.486 157.987C225.31 160.538 224.727 163.442 224.739 166.7C224.751 169.958 225.354 172.782 226.548 175.174C227.756 177.551 229.465 179.362 231.675 180.606ZM229.632 163.612C229.719 162.132 230.085 160.717 230.73 159.368C231.483 157.793 232.561 156.491 233.963 155.461C235.379 154.416 237.059 153.839 239.003 153.732C240.767 153.634 242.298 153.957 243.597 154.699C244.909 155.441 245.92 156.497 246.628 157.866C247.35 159.234 247.714 160.816 247.72 162.61L229.632 163.612Z" fill="white"/>
<path d="M273.075 180.342C270.098 180.507 267.532 179.945 265.376 178.656C263.221 177.367 261.56 175.52 260.393 173.113C259.227 170.706 258.637 167.915 258.626 164.74C258.614 161.51 259.197 158.626 260.373 156.09C261.564 153.538 263.224 151.506 265.356 149.994C267.501 148.467 270.007 147.624 272.874 147.465C275.107 147.341 277.121 147.644 278.916 148.373C280.711 149.102 282.183 150.18 283.332 151.608C284.482 153.035 285.198 154.735 285.481 156.708L280.601 156.978C280.224 155.549 279.392 154.311 278.106 153.264C276.834 152.202 275.123 151.731 272.973 151.85C271.071 151.955 269.404 152.545 267.975 153.618C266.558 154.677 265.454 156.126 264.661 157.965C263.882 159.789 263.496 161.902 263.505 164.304C263.514 166.761 263.907 168.879 264.686 170.659C265.478 172.438 266.586 173.791 268.009 174.721C269.446 175.649 271.13 176.06 273.059 175.953C274.328 175.882 275.478 175.598 276.51 175.099C277.542 174.6 278.415 173.916 279.129 173.048C279.843 172.18 280.349 171.158 280.648 169.982L285.528 169.712C285.259 171.604 284.582 173.333 283.499 174.898C282.429 176.448 281.007 177.715 279.232 178.697C277.471 179.664 275.418 180.213 273.075 180.342Z" fill="white"/>
<path fill-rule="evenodd" clip-rule="evenodd" d="M389.696 139.328C385.384 129.592 389.417 106.502 400.406 81.7423C411.395 56.983 426 38.6222 436.432 35.423C437.962 35.0057 439.492 34.8666 440.883 35.1448L442.135 35.5621C445.335 36.953 447.143 41.265 447.56 47.5244C447.638 48.8368 447.653 50.237 447.606 51.7162C452.336 62.4765 458.386 72.3669 465.643 81.0498C472.041 88.7001 479.274 95.5159 487.342 101.219L487.891 101.611C488.944 100.803 489.856 100.494 490.541 100.798L523.924 115.682C525.037 116.238 525.176 118.464 524.619 121.802C524.619 122.219 524.619 122.497 524.48 122.915C530.461 126.114 532.965 133.486 530.322 139.746C527.401 146.005 520.307 149.065 513.909 146.84C511.544 150.039 509.458 151.847 508.206 151.291L503.338 149.065C501.112 156.854 492.488 182.587 472.458 194.689C472.319 194.828 472.041 194.967 471.762 194.967L467.172 196.08C466.338 196.219 465.642 195.941 465.086 195.384L452.706 182.587C452.289 182.17 452.15 181.614 452.15 181.057C452.15 180.501 452.428 179.945 452.984 179.527C473.988 165.479 480.108 138.772 480.108 138.633L474.683 136.268C473.817 135.883 473.433 134.58 473.487 132.632C473.328 132.593 473.17 132.554 473.015 132.516C452.876 128.07 431.528 129.013 411.024 135.398C409.394 137.071 407.795 138.527 406.248 139.746C401.241 143.641 396.929 145.171 393.59 143.641C393.426 143.531 393.261 143.443 393.105 143.359C392.866 143.231 392.646 143.113 392.478 142.945C391.365 142.11 390.391 140.859 389.696 139.328Z" fill="white"/>
<path d="M376.818 127.274L317.841 156.067M380.157 92.6388L274.721 78.7291M397.127 60.924L376.263 46.7361" stroke="black" stroke-width="2.09934" stroke-miterlimit="10"/>
<path fill-rule="evenodd" clip-rule="evenodd" d="M389.696 139.328C385.384 129.592 389.417 106.502 400.406 81.7423C411.395 56.983 426 38.6222 436.432 35.423C437.962 35.0057 439.492 34.8666 440.883 35.1448L442.135 35.5621C445.335 36.953 447.143 41.265 447.56 47.5244C447.638 48.8368 447.653 50.237 447.606 51.7162C452.336 62.4765 458.386 72.3669 465.643 81.0498C472.041 88.7001 479.274 95.5159 487.342 101.219L487.891 101.611C488.944 100.803 489.856 100.494 490.541 100.798L523.924 115.682C525.037 116.238 525.176 118.464 524.619 121.802C524.619 122.219 524.619 122.497 524.48 122.915C530.461 126.114 532.965 133.486 530.322 139.746C527.401 146.005 520.307 149.065 513.909 146.84C511.544 150.039 509.458 151.847 508.206 151.291L503.338 149.065C501.112 156.854 492.488 182.587 472.458 194.689C472.319 194.828 472.041 194.967 471.762 194.967L467.172 196.08C466.338 196.219 465.642 195.941 465.086 195.384L452.706 182.587C452.289 182.17 452.15 181.614 452.15 181.057C452.15 180.501 452.428 179.945 452.984 179.527C473.988 165.479 480.108 138.772 480.108 138.633L474.683 136.268C473.817 135.883 473.433 134.58 473.487 132.632C473.328 132.593 473.17 132.554 473.015 132.516C452.876 128.07 431.528 129.013 411.024 135.398C409.394 137.071 407.795 138.527 406.248 139.746C401.241 143.641 396.929 145.171 393.59 143.641C393.426 143.531 393.261 143.443 393.105 143.359C392.866 143.231 392.646 143.113 392.478 142.945C391.365 142.11 390.391 140.859 389.696 139.328ZM412.02 134.354C420.341 127.223 429.624 114.234 436.85 97.8817C444.461 80.7896 448.227 64.3385 447.531 53.3276C446.838 64.9076 442.608 80.8145 435.18 97.3212C428.194 112.958 419.792 126.031 412.02 134.354ZM394.008 138.217C387.053 135.018 391.365 110.398 403.605 83.1346C415.707 55.8715 431.286 36.2588 438.24 39.319C441.301 40.7099 442.274 46.2738 441.162 54.4806C440.121 62.1839 437.444 72.1464 433.305 83.0855L419.767 79.1036L416.707 78.1299L416.568 78.269L416.568 78.269L416.567 78.269C416.488 78.189 416.454 78.1551 416.413 78.1406C416.382 78.1299 416.348 78.1299 416.289 78.1299C414.898 77.4344 411.977 80.7728 409.891 85.6412C407.804 90.3705 407.248 94.8216 408.639 95.378C408.685 95.378 408.732 95.3934 408.778 95.4089L408.778 95.4089C408.871 95.4398 408.964 95.4707 409.056 95.378L411.56 96.908L423.852 104.39C418.326 115.194 412.484 124.275 407.222 130.289C401.797 136.548 397.068 139.608 394.008 138.217ZM448.175 72.607C446.923 77.6145 445.254 83.0393 443.167 88.6031C446.367 91.5242 449.983 94.3061 453.739 97.0881C455.408 92.4979 456.938 88.0468 457.912 84.0129C453.739 79.5618 450.539 75.6671 448.175 72.607ZM480.863 103.488C473.074 97.7854 466.675 92.3606 461.529 87.4922C460.277 91.3869 458.886 95.4208 457.217 99.4546C463.893 104.045 470.848 107.939 476.273 110.721C479.658 112.544 482.556 113.88 484.396 114.727L484.758 114.894C485.732 112.251 486.427 109.887 486.983 107.8C485.752 106.898 484.521 106.043 483.318 105.209L483.318 105.208L483.317 105.208C482.482 104.628 481.661 104.058 480.863 103.488Z" fill="black"/>
</svg>
